<?xml version="1.0" standalone="no"?><!DOCTYPE svg PUBLIC "-//W3C//DTD SVG 1.1//EN" "http://www.w3.org/Graphics/SVG/1.1/DTD/svg11.dtd"><svg t="1679104860820" class="icon" viewBox="0 0 1024 1024" version="1.1" xmlns="http://www.w3.org/2000/svg" p-id="7187" xmlns:xlink="http://www.w3.org/1999/xlink" width="200" height="200"><path d="M615.04 959.84a21.92 21.92 0 0 1-20.16-11.84 16.384 16.384 0 0 1 8-21.44 253.408 253.408 0 0 0 121.6-212.16c0.64-70.4-28.48-176.96-164.16-297.28a554.016 554.016 0 0 1-71.36 282.24 23.168 23.168 0 0 1-23.68 9.6 19.744 19.744 0 0 1-17.6-16.64 193.632 193.632 0 0 0-52.48-108.8 650.72 650.72 0 0 1-35.52 79.04 265.6 265.6 0 0 0-38.72 134.72c0 44.48 42.56 96.32 83.84 123.84a18.368 18.368 0 0 1 11.2 16.32 20.224 20.224 0 0 1-21.76 17.92h-0.64a26.656 26.656 0 0 1-7.04-0.96c-166.4-48-258.24-145.92-258.24-275.52 0-110.08 60.16-198.72 123.52-292.48a960.736 960.736 0 0 0 153.92-307.52 20.192 20.192 0 0 1 14.4-13.76 25.152 25.152 0 0 1 21.44 4.16c301.44 233.6 454.08 392 454.08 607.68 0 141.76-119.36 263.36-277.44 282.88h-3.2z" fill="#d81e06" p-id="7188"></path></svg>