<?xml version="1.0" standalone="no"?><!DOCTYPE svg PUBLIC "-//W3C//DTD SVG 1.1//EN" "http://www.w3.org/Graphics/SVG/1.1/DTD/svg11.dtd"><svg t="1677986719077" class="icon" viewBox="0 0 1024 1024" version="1.1" xmlns="http://www.w3.org/2000/svg" p-id="3519" xmlns:xlink="http://www.w3.org/1999/xlink" width="200" height="200"><path d="M512 883.2l-140.8-140.8c-4.266667-4.266667-8.533333-8.533333-17.066667-12.8l-209.066666-209.066667c-85.333333-85.333333-85.333333-221.866667 0-307.2l4.266666-4.266666c85.333333-85.333333 221.866667-85.333333 307.2 0l55.466667 42.666666 46.933333-46.933333c85.333333-85.333333 221.866667-85.333333 307.2 0l4.266667 4.266667c85.333333 85.333333 85.333333 221.866667 0 307.2L512 883.2zM311.466667 209.066667c-38.4 0-76.8 12.8-106.666667 42.666666l-8.533333 4.266667c-59.733333 59.733333-59.733333 157.866667 0 217.6L405.333333 682.666667c4.266667 4.266667 8.533333 8.533333 12.8 8.533333l4.266667 4.266667 93.866667 93.866666 136.533333-136.533333 179.2-179.2c59.733333-59.733333 59.733333-157.866667 0-217.6l-4.266667-4.266667c-59.733333-59.733333-157.866667-59.733333-217.6 0L512 345.6 418.133333 251.733333c-29.866667-29.866667-68.266667-42.666667-106.666666-42.666666z" fill="#8a8a8a" p-id="3520"></path></svg>